# xmcd
# Track frame offsets:
# 150
# 11835
# 26577
# 38255
# 53805
# 64830
# 78962
# 92590
# 104645
# 118092
# 136467
# 152242
# 171477
# 184180
# 197220
#
# Disc length: 2795 seconds
# Revision: 2
# Processed by: cddbd v1.5.2PL0 Copyright (c) Steve Scherf et al.
# Submitted via: VisiTrax 2.11.3.279 - For more info visit www.synapsa.com
#
DISCID=cc0ae90f
DTITLE=Slim Dusty - That's The Song We're Singing
DYEAR=1992
DGENRE=Australian Country
TTITLE0=That's The Song We're Singing
TTITLE1=Jack O'Hagan
TTITLE2=She'll Be Right, Mate
TTITLE3=Tibrogargan
TTITLE4=That's The Way I Am
TTITLE5=The Day We Sold The Farm
TTITLE6=Bucking Horse Called Time
TTITLE7=Mangrove Boogie Kings
TTITLE8=My Dad Was A Roadtrain Man
TTITLE9=Hard And Calloused Hands
TTITLE10=Memory Motel
TTITLE11=All My Mates Are Gone
TTITLE12=Life Behind The Windscreen
TTITLE13=The Last Of Her Line
TTITLE14=Old Bush Road
EXTD=1992 EMI Music Australia
EXTT0=
EXTT1=
EXTT2=
EXTT3=
EXTT4=
EXTT5=
EXTT6=
EXTT7=
EXTT8=
EXTT9=
EXTT10=
EXTT11=
EXTT12=
EXTT13=
EXTT14=
PLAYORDER=
